<?xml version="1.0" encoding="UTF-8" standalone="no"?>
<!-- Created with Inkscape (http://www.inkscape.org/) -->

<svg
   width="2048"
   height="512"
   viewBox="0 0 541.86665 135.46667"
   version="1.1"
   id="svg1"
   xml:space="preserve"
   inkscape:version="1.4.1 (93de688d07, 2025-03-30)"
   sodipodi:docname="orofilesystem.svg"
   inkscape:export-filename="orofilesystem.png"
   inkscape:export-xdpi="96"
   inkscape:export-ydpi="96"
   xmlns:inkscape="http://www.inkscape.org/namespaces/inkscape"
   xmlns:sodipodi="http://sodipodi.sourceforge.net/DTD/sodipodi-0.dtd"
   xmlns:xlink="http://www.w3.org/1999/xlink"
   xmlns="http://www.w3.org/2000/svg"
   xmlns:svg="http://www.w3.org/2000/svg"><sodipodi:namedview
     id="namedview1"
     pagecolor="#505050"
     bordercolor="#eeeeee"
     borderopacity="1"
     inkscape:showpageshadow="0"
     inkscape:pageopacity="0"
     inkscape:pagecheckerboard="0"
     inkscape:deskcolor="#505050"
     inkscape:document-units="mm"
     inkscape:zoom="0.53480902"
     inkscape:cx="1019.9903"
     inkscape:cy="273.92956"
     inkscape:window-width="1892"
     inkscape:window-height="1052"
     inkscape:window-x="0"
     inkscape:window-y="0"
     inkscape:window-maximized="0"
     inkscape:current-layer="layer1" /><defs
     id="defs1"><linearGradient
       id="linearGradient42"
       inkscape:collect="always"><stop
         style="stop-color:#ffcc00;stop-opacity:1;"
         offset="0"
         id="stop42" /><stop
         style="stop-color:#ebd88e;stop-opacity:1;"
         offset="0.5"
         id="stop44" /><stop
         style="stop-color:#ffcc00;stop-opacity:1;"
         offset="1"
         id="stop43" /></linearGradient><linearGradient
       id="linearGradient21"
       inkscape:collect="always"><stop
         style="stop-color:#ffcc00;stop-opacity:1;"
         offset="0"
         id="stop21" /><stop
         style="stop-color:#ffcc00;stop-opacity:1;"
         offset="0.12950248"
         id="stop68" /><stop
         style="stop-color:#ffe980;stop-opacity:1;"
         offset="0.39467517"
         id="stop23" /><stop
         style="stop-color:#ffe980;stop-opacity:1;"
         offset="0.57611018"
         id="stop70" /><stop
         style="stop-color:#ffcc00;stop-opacity:1;"
         offset="0.82477385"
         id="stop69" /><stop
         style="stop-color:#ecb000;stop-opacity:1;"
         offset="1"
         id="stop22" /></linearGradient><rect
       x="605"
       y="344.94485"
       width="530"
       height="157.05515"
       id="rect21" /><rect
       x="624"
       y="140"
       width="1258"
       height="307.05133"
       id="rect1" /><inkscape:path-effect
       effect="spiro"
       id="path-effect20"
       is_visible="true"
       lpeversion="1" /><inkscape:path-effect
       effect="spiro"
       id="path-effect19"
       is_visible="true"
       lpeversion="1" /><inkscape:path-effect
       effect="spiro"
       id="path-effect18"
       is_visible="true"
       lpeversion="1" /><inkscape:path-effect
       effect="spiro"
       id="path-effect17"
       is_visible="true"
       lpeversion="1" /><inkscape:path-effect
       effect="spiro"
       id="path-effect16"
       is_visible="true"
       lpeversion="1" /><rect
       x="624"
       y="140"
       width="1258"
       height="307.05133"
       id="rect20" /><rect
       x="605"
       y="344.94485"
       width="530"
       height="157.05515"
       id="rect2" /><linearGradient
       inkscape:collect="always"
       xlink:href="#linearGradient21"
       id="linearGradient22"
       x1="36.0355"
       y1="34.882057"
       x2="133.44351"
       y2="100.58459"
       gradientUnits="userSpaceOnUse" /><linearGradient
       inkscape:collect="always"
       xlink:href="#linearGradient42"
       id="linearGradient43"
       x1="12.634839"
       y1="29.56152"
       x2="113.95758"
       y2="105.91368"
       gradientUnits="userSpaceOnUse" /><linearGradient
       inkscape:collect="always"
       xlink:href="#linearGradient42"
       id="linearGradient44"
       gradientUnits="userSpaceOnUse"
       x1="12.634839"
       y1="29.56152"
       x2="113.95758"
       y2="105.91368" /><linearGradient
       inkscape:collect="always"
       xlink:href="#linearGradient42"
       id="linearGradient45"
       gradientUnits="userSpaceOnUse"
       x1="12.634839"
       y1="29.56152"
       x2="113.95758"
       y2="105.91368" /><linearGradient
       inkscape:collect="always"
       xlink:href="#linearGradient42"
       id="linearGradient46"
       gradientUnits="userSpaceOnUse"
       x1="12.634839"
       y1="29.56152"
       x2="113.95758"
       y2="105.91368" /><linearGradient
       inkscape:collect="always"
       xlink:href="#linearGradient42"
       id="linearGradient47"
       gradientUnits="userSpaceOnUse"
       x1="12.634839"
       y1="29.56152"
       x2="113.95758"
       y2="105.91368" /><linearGradient
       inkscape:collect="always"
       xlink:href="#linearGradient42"
       id="linearGradient48"
       gradientUnits="userSpaceOnUse"
       x1="12.634839"
       y1="29.56152"
       x2="113.95758"
       y2="105.91368" /><linearGradient
       inkscape:collect="always"
       xlink:href="#linearGradient42"
       id="linearGradient49"
       gradientUnits="userSpaceOnUse"
       x1="12.634839"
       y1="29.56152"
       x2="113.95758"
       y2="105.91368" /><linearGradient
       inkscape:collect="always"
       xlink:href="#linearGradient42"
       id="linearGradient50"
       gradientUnits="userSpaceOnUse"
       x1="12.634839"
       y1="29.56152"
       x2="113.95758"
       y2="105.91368" /><linearGradient
       inkscape:collect="always"
       xlink:href="#linearGradient42"
       id="linearGradient51"
       gradientUnits="userSpaceOnUse"
       x1="12.634839"
       y1="29.56152"
       x2="113.95758"
       y2="105.91368" /><linearGradient
       inkscape:collect="always"
       xlink:href="#linearGradient42"
       id="linearGradient52"
       gradientUnits="userSpaceOnUse"
       x1="12.634839"
       y1="29.56152"
       x2="113.95758"
       y2="105.91368" /><linearGradient
       inkscape:collect="always"
       xlink:href="#linearGradient42"
       id="linearGradient53"
       gradientUnits="userSpaceOnUse"
       x1="12.634839"
       y1="29.56152"
       x2="113.95758"
       y2="105.91368" /><linearGradient
       inkscape:collect="always"
       xlink:href="#linearGradient42"
       id="linearGradient54"
       gradientUnits="userSpaceOnUse"
       x1="12.634839"
       y1="29.56152"
       x2="113.95758"
       y2="105.91368" /><linearGradient
       inkscape:collect="always"
       xlink:href="#linearGradient42"
       id="linearGradient55"
       gradientUnits="userSpaceOnUse"
       x1="12.634839"
       y1="29.56152"
       x2="113.95758"
       y2="105.91368" /><linearGradient
       inkscape:collect="always"
       xlink:href="#linearGradient42"
       id="linearGradient56"
       gradientUnits="userSpaceOnUse"
       x1="12.634839"
       y1="29.56152"
       x2="113.95758"
       y2="105.91368" /><linearGradient
       inkscape:collect="always"
       xlink:href="#linearGradient42"
       id="linearGradient57"
       gradientUnits="userSpaceOnUse"
       x1="12.634839"
       y1="29.56152"
       x2="113.95758"
       y2="105.91368" /><linearGradient
       inkscape:collect="always"
       xlink:href="#linearGradient42"
       id="linearGradient58"
       gradientUnits="userSpaceOnUse"
       x1="12.634839"
       y1="29.56152"
       x2="113.95758"
       y2="105.91368" /><linearGradient
       inkscape:collect="always"
       xlink:href="#linearGradient42"
       id="linearGradient59"
       gradientUnits="userSpaceOnUse"
       x1="12.634839"
       y1="29.56152"
       x2="113.95758"
       y2="105.91368" /><linearGradient
       inkscape:collect="always"
       xlink:href="#linearGradient42"
       id="linearGradient60"
       gradientUnits="userSpaceOnUse"
       x1="12.634839"
       y1="29.56152"
       x2="113.95758"
       y2="105.91368" /><linearGradient
       inkscape:collect="always"
       xlink:href="#linearGradient42"
       id="linearGradient61"
       gradientUnits="userSpaceOnUse"
       x1="12.634839"
       y1="29.56152"
       x2="113.95758"
       y2="105.91368" /><linearGradient
       inkscape:collect="always"
       xlink:href="#linearGradient42"
       id="linearGradient62"
       gradientUnits="userSpaceOnUse"
       x1="12.634839"
       y1="29.56152"
       x2="113.95758"
       y2="105.91368" /><linearGradient
       inkscape:collect="always"
       xlink:href="#linearGradient42"
       id="linearGradient63"
       gradientUnits="userSpaceOnUse"
       x1="12.634839"
       y1="29.56152"
       x2="113.95758"
       y2="105.91368" /><linearGradient
       inkscape:collect="always"
       xlink:href="#linearGradient42"
       id="linearGradient64"
       gradientUnits="userSpaceOnUse"
       x1="12.634839"
       y1="29.56152"
       x2="113.95758"
       y2="105.91368" /><linearGradient
       inkscape:collect="always"
       xlink:href="#linearGradient42"
       id="linearGradient65"
       gradientUnits="userSpaceOnUse"
       x1="12.634839"
       y1="29.56152"
       x2="113.95758"
       y2="105.91368" /><linearGradient
       inkscape:collect="always"
       xlink:href="#linearGradient42"
       id="linearGradient66"
       gradientUnits="userSpaceOnUse"
       x1="12.634839"
       y1="29.56152"
       x2="113.95758"
       y2="105.91368" /><linearGradient
       inkscape:collect="always"
       xlink:href="#linearGradient42"
       id="linearGradient67"
       gradientUnits="userSpaceOnUse"
       x1="12.634839"
       y1="29.56152"
       x2="113.95758"
       y2="105.91368" /><filter
       style="color-interpolation-filters:sRGB;"
       inkscape:label="Drop Shadow"
       id="filter100"
       x="-0.018286109"
       y="-0.077073205"
       width="1.0354137"
       height="1.1541464"><feFlood
         result="flood"
         in="SourceGraphic"
         flood-opacity="0.498039"
         flood-color="rgb(0,0,0)"
         id="feFlood99" /><feGaussianBlur
         result="blur"
         in="SourceGraphic"
         stdDeviation="3.500000"
         id="feGaussianBlur99" /><feOffset
         result="offset"
         in="blur"
         dx="0.000000"
         dy="0.000000"
         id="feOffset99" /><feComposite
         result="comp1"
         operator="in"
         in="flood"
         in2="offset"
         id="feComposite99" /><feComposite
         result="comp2"
         operator="over"
         in="SourceGraphic"
         in2="comp1"
         id="feComposite100" /></filter><filter
       style="color-interpolation-filters:sRGB;"
       inkscape:label="Drop Shadow"
       id="filter120"
       x="-0.018286108"
       y="-0.077073205"
       width="1.0354137"
       height="1.1541464"><feFlood
         result="flood"
         in="SourceGraphic"
         flood-opacity="0.749020"
         flood-color="rgb(0,0,0)"
         id="feFlood119" /><feGaussianBlur
         result="blur"
         in="SourceGraphic"
         stdDeviation="3.500000"
         id="feGaussianBlur119" /><feOffset
         result="offset"
         in="blur"
         dx="0.000000"
         dy="0.000000"
         id="feOffset119" /><feComposite
         result="comp1"
         operator="in"
         in="flood"
         in2="offset"
         id="feComposite119" /><feComposite
         result="comp2"
         operator="over"
         in="SourceGraphic"
         in2="comp1"
         id="feComposite120" /></filter></defs><g
     inkscape:label="Layer 1"
     inkscape:groupmode="layer"
     id="layer1"
     style="display:inline;filter:url(#filter120)"><g
       inkscape:label="oro-filesystem"
       id="layer1-53"
       transform="translate(16.020688,0.00424062)"
       style="display:inline"><circle
         style="fill:url(#linearGradient22);stroke:#4b330c;stroke-width:1.13632;stroke-dasharray:none;stroke-opacity:1"
         id="path21"
         cx="84.739502"
         cy="67.73333"
         r="58.179493"
         transform="translate(-16.020688,-0.00424062)"
         inkscape:label="coin" /><g
         id="g1"
         transform="matrix(-0.75018236,0,0,-0.75018236,119.64322,118.54463)"
         inkscape:label="icon"
         style="stroke:#503517;stroke-opacity:1"><g
           inkscape:label="EBO"
           id="layer1-5"
           inkscape:highlight-color="#ba99c0"
           style="display:inline;fill:none;stroke:#503517;stroke-width:1.32292;stroke-dasharray:none;stroke-opacity:1"><circle
             style="fill:none;stroke:#503517;stroke-width:1.32292;stroke-linecap:square;stroke-dasharray:none;stroke-opacity:1"
             id="path1"
             r="26.586807"
             cy="67.73333"
             cx="67.73333"
             inkscape:label="core" /><circle
             style="display:inline;fill:none;stroke:#503517;stroke-width:0.264583;stroke-linecap:square;stroke-dasharray:none;stroke-opacity:1"
             id="path2"
             cx="67.73333"
             cy="67.73333"
             r="38.77837"
             inkscape:label="guide" /><path
             style="display:inline;fill:none;stroke:#503517;stroke-width:0.264583;stroke-linecap:square;stroke-dasharray:none;stroke-opacity:1"
             id="circle4"
             inkscape:label="guide2"
             sodipodi:type="arc"
             sodipodi:cx="67.73333"
             sodipodi:cy="67.73333"
             sodipodi:rx="67.73333"
             sodipodi:ry="67.73333"
             sodipodi:start="0.52359878"
             sodipodi:end="4.712389"
             sodipodi:open="true"
             sodipodi:arc-type="arc"
             d="M 126.39211,101.59999 A 67.73333,67.73333 0 0 1 44.567166,131.38184 67.73333,67.73333 0 0 1 1.0290216,55.97156 67.73333,67.73333 0 0 1 67.73333,0" /><path
             style="fill:none;stroke:#503517;stroke-width:1.32292;stroke-linecap:butt;stroke-dasharray:none;stroke-opacity:1"
             d="M 67.73333,41.146523 V 0"
             id="path3"
             inkscape:label="Top"
             sodipodi:nodetypes="cc" /><path
             style="fill:none;stroke:#503517;stroke-width:1.32292;stroke-linecap:butt;stroke-dasharray:none;stroke-opacity:1"
             d="M 67.73333,94.320137 V 135.46666"
             id="path6"
             inkscape:label="Bottom" /><path
             style="fill:none;stroke:#503517;stroke-width:1.32292;stroke-linecap:butt;stroke-dasharray:none;stroke-opacity:1"
             d="M 90.75818,81.026734 126.39211,101.6"
             id="path4"
             sodipodi:nodetypes="cc"
             inkscape:label="BRight" /><path
             style="fill:none;stroke:#503517;stroke-width:1.32292;stroke-linecap:butt;stroke-dasharray:none;stroke-opacity:1"
             d="M 44.70848,81.026734 9.0745496,101.6"
             id="path5"
             sodipodi:nodetypes="cc"
             inkscape:label="BLeft" /><path
             style="fill:none;stroke:#503517;stroke-width:1.32292;stroke-linecap:butt;stroke-dasharray:none;stroke-opacity:1"
             d="M 44.708479,54.439927 9.0745446,33.866666"
             id="path7"
             sodipodi:nodetypes="cc"
             inkscape:label="TLeft" /></g><g
           id="layer3"
           inkscape:label="Curves"
           style="display:inline;stroke:#503517;stroke-opacity:1"><path
             style="fill:none;stroke:#503517;stroke-width:1.32292;stroke-linecap:butt;stroke-dasharray:none;stroke-opacity:1"
             d="m 67.73333,0 c 0.09912,6.8621711 -1.664743,13.742292 -5.053174,19.710353 -3.38843,5.968062 -8.392577,11.008479 -14.336011,14.439923 -5.943435,3.431444 -12.810638,5.244953 -19.673346,5.19539 -6.862708,-0.04956 -13.703002,-1.96207 -19.5962546,-5.479"
             id="path16"
             inkscape:label="TL"
             sodipodi:nodetypes="csssc" /><path
             style="fill:none;stroke:#503517;stroke-width:1.32292;stroke-linecap:butt;stroke-dasharray:none;stroke-opacity:1"
             d="m 9.0745444,33.866666 c 5.9923766,3.345241 11.0688026,8.312855 14.5430806,14.231353 3.474277,5.918497 5.337334,12.772424 5.337335,19.635311 1e-6,6.862887 -1.863055,13.716815 -5.337332,19.635314 C 20.143352,93.287142 15.066926,98.254758 9.0745494,101.6"
             id="path17"
             inkscape:label="L"
             sodipodi:nodetypes="csssc" /><path
             style="fill:none;stroke:#503517;stroke-width:1.32292;stroke-linecap:butt;stroke-dasharray:none;stroke-opacity:1"
             d="M 67.73333,135.46666 C 67.83262,128.60447 66.068782,121.72429 62.68032,115.75623 59.291857,109.78816 54.287632,104.74778 48.344147,101.31638 42.400691,97.884998 35.533498,96.07153 28.670802,96.121096 21.808107,96.170663 14.967826,98.083134 9.0745496,101.6"
             id="path18"
             inkscape:label="BL"
             sodipodi:nodetypes="csssc" /><path
             style="fill:none;stroke:#503517;stroke-width:1.32292;stroke-linecap:butt;stroke-dasharray:none;stroke-opacity:1"
             d="m 126.39211,101.6 c -5.89325,-3.516931 -12.73354,-5.42944 -19.59625,-5.479005 -6.862708,-0.04956 -13.729911,1.763943 -19.673345,5.195385 -5.943436,3.43144 -10.947583,8.47186 -14.336014,14.43992 -3.388431,5.96807 -5.152297,12.84819 -5.053171,19.71036"
             id="path19"
             sodipodi:nodetypes="ccssc"
             inkscape:label="BR" /></g><g
           id="layer4"
           inkscape:label="Curves Guides"
           inkscape:highlight-color="#21b1f3"
           style="display:inline;stroke:#503517;stroke-width:0.264583;stroke-dasharray:none;stroke-opacity:1"><g
             id="g11"
             inkscape:label="lines"
             inkscape:highlight-color="#21f37d"
             style="stroke:#503517;stroke-opacity:1"><path
               style="fill:none;stroke:#503517;stroke-width:0.264583;stroke-linecap:butt;stroke-dasharray:none;stroke-opacity:1"
               d="M 67.733332,67.733332 48.344145,34.150276"
               id="path8"
               inkscape:label="TL" /><path
               style="fill:none;stroke:#503517;stroke-width:0.264583;stroke-linecap:butt;stroke-dasharray:none;stroke-opacity:1"
               d="M 67.73333,67.73333 H 28.95496"
               id="path9"
               inkscape:label="L" /><path
               style="fill:none;stroke:#503517;stroke-width:0.264583;stroke-linecap:butt;stroke-dasharray:none;stroke-opacity:1"
               d="M 67.733332,67.733332 48.344147,101.31638"
               id="path10"
               inkscape:label="BL" /><path
               style="fill:none;stroke:#503517;stroke-width:0.264583;stroke-linecap:butt;stroke-dasharray:none;stroke-opacity:1"
               d="m 67.73333,67.73333 19.389185,33.58305"
               id="path11"
               inkscape:label="BR" /></g><path
             style="fill:none;stroke:#503517;stroke-width:0.264583;stroke-linecap:butt;stroke-linejoin:bevel;stroke-dasharray:none;stroke-opacity:1"
             d="M 67.73333,0 48.344145,34.150276 9.0745444,33.866666 Z"
             id="path12"
             inkscape:label="TL" /><path
             style="fill:none;stroke:#503517;stroke-width:0.264583;stroke-linecap:butt;stroke-linejoin:bevel;stroke-dasharray:none;stroke-opacity:1"
             d="M 28.95496,67.73333 9.0745444,33.866666 9.0745494,101.6 Z"
             id="path13"
             inkscape:label="L" /><path
             style="fill:none;stroke:#503517;stroke-width:0.264583;stroke-linecap:butt;stroke-linejoin:bevel;stroke-dasharray:none;stroke-opacity:1"
             d="M 9.0745494,101.6 67.73333,135.46666 48.344147,101.31638 Z"
             id="path14"
             inkscape:label="BL" /><path
             style="fill:none;stroke:#503517;stroke-width:0.264583;stroke-linecap:butt;stroke-linejoin:bevel;stroke-dasharray:none;stroke-opacity:1"
             d="M 67.73333,135.46666 126.39211,101.6 87.122515,101.31638 Z"
             id="path15"
             inkscape:label="BR" /></g></g><g
         id="g42"
         transform="matrix(-0.75018236,0,0,-0.75018236,119.39586,118.71954)"
         inkscape:label="icon-light"
         style="display:inline;stroke:url(#linearGradient43)"><g
           inkscape:label="EBO"
           id="g29"
           inkscape:highlight-color="#ba99c0"
           style="display:inline;fill:none;stroke:url(#linearGradient52);stroke-width:1.32292;stroke-dasharray:none;stroke-opacity:1"><circle
             style="fill:none;stroke:url(#linearGradient44);stroke-width:1.32292;stroke-linecap:square;stroke-dasharray:none;stroke-opacity:1"
             id="circle23"
             r="26.586807"
             cy="67.73333"
             cx="67.73333"
             inkscape:label="core" /><circle
             style="display:inline;fill:none;stroke:url(#linearGradient45);stroke-width:0.264583;stroke-linecap:square;stroke-dasharray:none;stroke-opacity:1"
             id="circle24"
             cx="67.73333"
             cy="67.73333"
             r="38.77837"
             inkscape:label="guide" /><path
             style="display:inline;fill:none;stroke:url(#linearGradient46);stroke-width:0.264583;stroke-linecap:square;stroke-dasharray:none;stroke-opacity:1"
             id="path24"
             inkscape:label="guide2"
             sodipodi:type="arc"
             sodipodi:cx="67.73333"
             sodipodi:cy="67.73333"
             sodipodi:rx="67.73333"
             sodipodi:ry="67.73333"
             sodipodi:start="0.52359878"
             sodipodi:end="4.712389"
             sodipodi:open="true"
             sodipodi:arc-type="arc"
             d="M 126.39211,101.59999 A 67.73333,67.73333 0 0 1 44.567166,131.38184 67.73333,67.73333 0 0 1 1.0290216,55.97156 67.73333,67.73333 0 0 1 67.73333,0" /><path
             style="fill:none;stroke:url(#linearGradient47);stroke-width:1.32292;stroke-linecap:butt;stroke-dasharray:none;stroke-opacity:1"
             d="M 67.73333,41.146523 V 0"
             id="path25"
             inkscape:label="Top"
             sodipodi:nodetypes="cc" /><path
             style="fill:none;stroke:url(#linearGradient48);stroke-width:1.32292;stroke-linecap:butt;stroke-dasharray:none;stroke-opacity:1"
             d="M 67.73333,94.320137 V 135.46666"
             id="path26"
             inkscape:label="Bottom" /><path
             style="fill:none;stroke:url(#linearGradient49);stroke-width:1.32292;stroke-linecap:butt;stroke-dasharray:none;stroke-opacity:1"
             d="M 90.75818,81.026734 126.39211,101.6"
             id="path27"
             sodipodi:nodetypes="cc"
             inkscape:label="BRight" /><path
             style="fill:none;stroke:url(#linearGradient50);stroke-width:1.32292;stroke-linecap:butt;stroke-dasharray:none;stroke-opacity:1"
             d="M 44.70848,81.026734 9.0745496,101.6"
             id="path28"
             sodipodi:nodetypes="cc"
             inkscape:label="BLeft" /><path
             style="fill:none;stroke:url(#linearGradient51);stroke-width:1.32292;stroke-linecap:butt;stroke-dasharray:none;stroke-opacity:1"
             d="M 44.708479,54.439927 9.0745446,33.866666"
             id="path29"
             sodipodi:nodetypes="cc"
             inkscape:label="TLeft" /></g><g
           id="g33"
           inkscape:label="Curves"
           style="display:inline;stroke:url(#linearGradient57);stroke-opacity:1"><path
             style="fill:none;stroke:url(#linearGradient53);stroke-width:1.32292;stroke-linecap:butt;stroke-dasharray:none;stroke-opacity:1"
             d="m 67.73333,0 c 0.09912,6.8621711 -1.664743,13.742292 -5.053174,19.710353 -3.38843,5.968062 -8.392577,11.008479 -14.336011,14.439923 -5.943435,3.431444 -12.810638,5.244953 -19.673346,5.19539 -6.862708,-0.04956 -13.703002,-1.96207 -19.5962546,-5.479"
             id="path30"
             inkscape:label="TL"
             sodipodi:nodetypes="csssc" /><path
             style="fill:none;stroke:url(#linearGradient54);stroke-width:1.32292;stroke-linecap:butt;stroke-dasharray:none;stroke-opacity:1"
             d="m 9.0745444,33.866666 c 5.9923766,3.345241 11.0688026,8.312855 14.5430806,14.231353 3.474277,5.918497 5.337334,12.772424 5.337335,19.635311 1e-6,6.862887 -1.863055,13.716815 -5.337332,19.635314 C 20.143352,93.287142 15.066926,98.254758 9.0745494,101.6"
             id="path31"
             inkscape:label="L"
             sodipodi:nodetypes="csssc" /><path
             style="fill:none;stroke:url(#linearGradient55);stroke-width:1.32292;stroke-linecap:butt;stroke-dasharray:none;stroke-opacity:1"
             d="M 67.73333,135.46666 C 67.83262,128.60447 66.068782,121.72429 62.68032,115.75623 59.291857,109.78816 54.287632,104.74778 48.344147,101.31638 42.400691,97.884998 35.533498,96.07153 28.670802,96.121096 21.808107,96.170663 14.967826,98.083134 9.0745496,101.6"
             id="path32"
             inkscape:label="BL"
             sodipodi:nodetypes="csssc" /><path
             style="fill:none;stroke:url(#linearGradient56);stroke-width:1.32292;stroke-linecap:butt;stroke-dasharray:none;stroke-opacity:1"
             d="m 126.39211,101.6 c -5.89325,-3.516931 -12.73354,-5.42944 -19.59625,-5.479005 -6.862708,-0.04956 -13.729911,1.763943 -19.673345,5.195385 -5.943436,3.43144 -10.947583,8.47186 -14.336014,14.43992 -3.388431,5.96807 -5.152297,12.84819 -5.053171,19.71036"
             id="path33"
             sodipodi:nodetypes="ccssc"
             inkscape:label="BR" /></g><g
           id="g41"
           inkscape:label="Curves Guides"
           inkscape:highlight-color="#21b1f3"
           style="display:inline;stroke:url(#linearGradient67);stroke-width:0.264583;stroke-dasharray:none;stroke-opacity:1"><g
             id="g37"
             inkscape:label="lines"
             inkscape:highlight-color="#21f37d"
             style="stroke:url(#linearGradient62);stroke-opacity:1"><path
               style="fill:none;stroke:url(#linearGradient58);stroke-width:0.264583;stroke-linecap:butt;stroke-dasharray:none;stroke-opacity:1"
               d="M 67.733332,67.733332 48.344145,34.150276"
               id="path34"
               inkscape:label="TL" /><path
               style="fill:none;stroke:url(#linearGradient59);stroke-width:0.264583;stroke-linecap:butt;stroke-dasharray:none;stroke-opacity:1"
               d="M 67.73333,67.73333 H 28.95496"
               id="path35"
               inkscape:label="L" /><path
               style="fill:none;stroke:url(#linearGradient60);stroke-width:0.264583;stroke-linecap:butt;stroke-dasharray:none;stroke-opacity:1"
               d="M 67.733332,67.733332 48.344147,101.31638"
               id="path36"
               inkscape:label="BL" /><path
               style="fill:none;stroke:url(#linearGradient61);stroke-width:0.264583;stroke-linecap:butt;stroke-dasharray:none;stroke-opacity:1"
               d="m 67.73333,67.73333 19.389185,33.58305"
               id="path37"
               inkscape:label="BR" /></g><path
             style="fill:none;stroke:url(#linearGradient63);stroke-width:0.264583;stroke-linecap:butt;stroke-linejoin:bevel;stroke-dasharray:none;stroke-opacity:1"
             d="M 67.73333,0 48.344145,34.150276 9.0745444,33.866666 Z"
             id="path38"
             inkscape:label="TL" /><path
             style="fill:none;stroke:url(#linearGradient64);stroke-width:0.264583;stroke-linecap:butt;stroke-linejoin:bevel;stroke-dasharray:none;stroke-opacity:1"
             d="M 28.95496,67.73333 9.0745444,33.866666 9.0745494,101.6 Z"
             id="path39"
             inkscape:label="L" /><path
             style="fill:none;stroke:url(#linearGradient65);stroke-width:0.264583;stroke-linecap:butt;stroke-linejoin:bevel;stroke-dasharray:none;stroke-opacity:1"
             d="M 9.0745494,101.6 67.73333,135.46666 48.344147,101.31638 Z"
             id="path40"
             inkscape:label="BL" /><path
             style="fill:none;stroke:url(#linearGradient66);stroke-width:0.264583;stroke-linecap:butt;stroke-linejoin:bevel;stroke-dasharray:none;stroke-opacity:1"
             d="M 67.73333,135.46666 126.39211,101.6 87.122515,101.31638 Z"
             id="path41"
             inkscape:label="BR" /></g></g><path
         d="m 806.30037,171.53687 h 22.95 v -18.9 q 0,-5.1 3.15,-8.4 3.3,-3.3 8.4,-3.3 h 29.4 v 10.8 h -25.2 q -4.05,0 -4.05,4.5 v 15.3 h 31.05 v 10.8 h -31.05 v 63.6 h -11.7 v -63.6 h -22.95 z m 115.64992,-22.2 q 0,-4.35 3,-7.35 3.15,-3.15 7.5,-3.15 4.35,0 7.35,3.15 3.15,3 3.15,7.35 0,4.35 -3.15,7.5 -3,3 -7.35,3 -4.35,0 -7.5,-3 -3,-3.15 -3,-7.5 z m -21.3,85.8 h 26.1 v -52.8 h -23.4 v -10.8 h 35.1 v 63.6 h 24.3 v 10.8 h -62.1 z m 89.99993,0 h 26.99998 v -83.4 h -26.09998 v -10.8 h 37.79998 v 94.2 h 27 v 10.8 h -65.69998 z m 100.34988,-22.8 q 0.45,11.1 6.9,17.85 6.45,6.75 18,6.75 5.25,0 9.15,-1.2 3.9,-1.2 6.6,-3.3 2.85,-2.1 4.5,-4.8 1.8,-2.85 2.85,-6 l 11.1,3 q -3.15,10.35 -11.7,16.95 -8.4,6.45 -22.8,6.45 -7.95,0 -14.7,-2.7 -6.6,-2.85 -11.4,-7.95 -4.8,-5.1 -7.5,-12.15 -2.7,-7.05 -2.7,-15.6 v -3.6 q 0,-7.8 2.7,-14.55 2.85,-6.75 7.8,-11.55 4.95,-4.95 11.55,-7.65 6.75,-2.85 14.55,-2.85 9.15,0 15.75,3.45 6.75,3.3 10.95,8.25 4.35,4.95 6.3,10.8 2.1,5.85 2.1,10.8 v 9.6 z m 24.9,-31.8 q -4.95,0 -9.3,1.65 -4.2,1.5 -7.5,4.35 -3.15,2.85 -5.25,6.75 -1.95,3.75 -2.55,8.25 h 48 q -0.3,-4.8 -2.4,-8.7 -1.95,-3.9 -5.25,-6.6 -3.15,-2.7 -7.35,-4.2 -4.05,-1.5 -8.4,-1.5 z m 73.8,10.2 q 0,5.4 4.5,8.25 4.65,2.85 16.8,3.75 13.05,1.05 19.8,6.3 6.9,5.1 6.9,15 v 0.9 q 0,5.4 -2.25,9.75 -2.1,4.2 -6,7.2 -3.75,3 -9.3,4.5 -5.4,1.65 -11.85,1.65 -8.7,0 -15,-2.25 -6.15,-2.4 -10.35,-6.15 -4.05,-3.9 -6.15,-8.7 -2.1,-4.95 -2.4,-9.9 l 11.1,-2.7 q 0.75,8.55 6.6,13.8 5.85,5.1 15.6,5.1 8.25,0 13.2,-3.15 5.1,-3.3 5.1,-9.15 0,-6.3 -4.95,-9 -4.95,-2.7 -16.05,-3.45 -12.9,-0.9 -19.8,-6 -6.9,-5.1 -6.9,-14.85 v -0.9 q 0,-5.25 2.25,-9.15 2.25,-4.05 6,-6.75 3.9,-2.7 8.7,-4.05 4.8,-1.35 10.05,-1.35 7.35,0 12.9,2.1 5.55,1.95 9.3,5.25 3.75,3.15 5.7,7.35 2.1,4.2 2.7,8.4 l -11.1,2.7 q -0.75,-7.2 -5.85,-11.25 -4.95,-4.05 -13.05,-4.05 -3.15,0 -6.15,0.75 -2.85,0.6 -5.1,1.95 -2.25,1.35 -3.6,3.45 -1.35,1.95 -1.35,4.65 z m 130.3499,41.7 h -1.8 q -3.6,7.2 -9.45,11.4 -5.85,4.2 -14.85,4.2 -6.15,0 -11.4,-2.1 -5.1,-1.95 -8.85,-6 -3.6,-4.05 -5.7,-10.05 -1.95,-6 -1.95,-13.95 v -44.4 h 11.7 v 42.9 q 0,11.7 4.8,17.1 4.8,5.4 14.7,5.4 10.65,0 16.65,-7.2 6.15,-7.35 6.15,-19.5 v -38.7 h 11.7 v 92.7 q 0,5.1 -3.3,8.4 -3.15,3.3 -8.25,3.3 h -42.45 v -10.8 H 1316 q 4.05,0 4.05,-4.5 z m 53.2499,-41.7 q 0,5.4 4.5,8.25 4.65,2.85 16.8,3.75 13.05,1.05 19.8,6.3 6.9,5.1 6.9,15 v 0.9 q 0,5.4 -2.25,9.75 -2.1,4.2 -6,7.2 -3.75,3 -9.3,4.5 -5.4,1.65 -11.85,1.65 -8.7,0 -15,-2.25 -6.15,-2.4 -10.35,-6.15 -4.05,-3.9 -6.15,-8.7 -2.1,-4.95 -2.4,-9.9 l 11.1,-2.7 q 0.75,8.55 6.6,13.8 5.85,5.1 15.6,5.1 8.25,0 13.2,-3.15 5.1,-3.3 5.1,-9.15 0,-6.3 -4.95,-9 -4.95,-2.7 -16.05,-3.45 -12.9,-0.9 -19.8,-6 -6.9,-5.1 -6.9,-14.85 v -0.9 q 0,-5.25 2.25,-9.15 2.25,-4.05 6,-6.75 3.9,-2.7 8.7,-4.05 4.8,-1.35 10.05,-1.35 7.35,0 12.9,2.1 5.55,1.95 9.3,5.25 3.75,3.15 5.7,7.35 2.1,4.2 2.7,8.4 l -11.1,2.7 q -0.75,-7.2 -5.85,-11.25 -4.95,-4.05 -13.05,-4.05 -3.15,0 -6.15,0.75 -2.85,0.6 -5.1,1.95 -2.25,1.35 -3.6,3.45 -1.35,1.95 -1.35,4.65 z m 73.8,-19.2 h 23.4 v -30.6 h 11.7 v 30.6 h 28.8 v 10.8 h -28.8 v 48.3 q 0,4.5 4.05,4.5 h 21.15 v 10.8 h -25.35 q -5.1,0 -8.4,-3.3 -3.15,-3.3 -3.15,-8.4 v -51.9 h -23.4 z m 102.8999,40.8 q 0.45,11.1 6.9,17.85 6.45,6.75 18,6.75 5.25,0 9.15,-1.2 3.9,-1.2 6.6,-3.3 2.85,-2.1 4.5,-4.8 1.8,-2.85 2.85,-6 l 11.1,3 q -3.15,10.35 -11.7,16.95 -8.4,6.45 -22.8,6.45 -7.95,0 -14.7,-2.7 -6.6,-2.85 -11.4,-7.95 -4.8,-5.1 -7.5,-12.15 -2.7,-7.05 -2.7,-15.6 v -3.6 q 0,-7.8 2.7,-14.55 2.85,-6.75 7.8,-11.55 4.95,-4.95 11.55,-7.65 6.75,-2.85 14.55,-2.85 9.15,0 15.75,3.45 6.75,3.3 10.95,8.25 4.35,4.95 6.3,10.8 2.1,5.85 2.1,10.8 v 9.6 z m 24.9,-31.8 q -4.95,0 -9.3,1.65 -4.2,1.5 -7.5,4.35 -3.15,2.85 -5.25,6.75 -1.95,3.75 -2.55,8.25 h 48 q -0.3,-4.8 -2.4,-8.7 -1.95,-3.9 -5.25,-6.6 -3.15,-2.7 -7.35,-4.2 -4.05,-1.5 -8.4,-1.5 z m 129.8999,65.4 h -11.7 v -53.4 q 0,-5.25 -2.4,-8.55 -2.4,-3.45 -7.65,-3.45 -4.95,0 -8.1,3.75 -3,3.6 -3,11.25 v 50.4 h -11.7 v -54 q 0,-4.95 -2.7,-8.1 -2.7,-3.3 -7.2,-3.3 -5.4,0 -8.4,3.9 -2.85,3.9 -2.85,10.2 v 51.3 h -11.7 v -74.4 h 11.7 v 8.1 h 1.8 q 1.95,-5.25 5.7,-7.65 3.75,-2.55 8.85,-2.55 5.4,0 8.85,2.85 3.6,2.85 4.95,7.35 h 1.8 q 5.1,-10.2 16.2,-10.2 8.4,0 12.9,5.4 4.65,5.25 4.65,13.8 z"
         id="text1"
         style="font-size:150px;line-height:0.9;font-family:'SpaceMono Nerd Font';-inkscape-font-specification:'SpaceMono Nerd Font';text-align:center;white-space:pre;fill:#fff19f;stroke-width:5;stroke-linecap:square;stroke-linejoin:bevel"
         inkscape:label="text"
         transform="matrix(0.26458333,0,0,0.26458333,49.913435,16.553163)"
         aria-label="filesystem" /><path
         d="m 1124.3001,181.73687 q 0,-20.4 9.75,-31.65 9.75,-11.25 27.15,-11.25 17.4,0 27.15,11.25 9.75,11.25 9.75,31.65 v 23.4 q 0,21 -9.75,31.95 -9.75,10.95 -27.15,10.95 -17.4,0 -27.15,-10.95 -9.75,-10.95 -9.75,-31.95 z m 36.9,54.6 q 12.15,0 18.15,-8.25 6.15,-8.4 6.15,-23.85 v -21.6 q 0,-14.4 -6.15,-23.25 -6,-8.85 -18.15,-8.85 -12.15,0 -18.3,8.85 -6,8.85 -6,23.25 v 21.6 q 0,15.45 6,23.85 6.15,8.25 18.3,8.25 z m 124.6499,9.6 h -12.6 v -35.1 q 0,-3.9 -1.8,-6 -1.8,-2.1 -6.3,-2.1 h -32.7 v 43.2 h -12.6 v -105 h 37.5 q 8.1,0 14.1,2.4 6,2.25 9.9,6.15 4.05,3.9 6,9.15 2.1,5.1 2.1,10.8 v 4.5 q 0,5.85 -3.3,11.7 -3.15,5.85 -9.9,9 v 1.8 q 4.5,0.75 7.05,3.6 2.55,2.85 2.55,8.1 z m -53.4,-54.9 h 23.4 q 10.65,0 15.75,-4.5 5.25,-4.65 5.25,-13.5 v -2.7 q 0,-7.95 -5.25,-12.75 -5.1,-4.95 -15.75,-4.95 h -23.4 z m 75.45,-9.3 q 0,-20.4 9.75,-31.65 9.75,-11.25 27.15,-11.25 17.4,0 27.15,11.25 9.75,11.25 9.75,31.65 v 23.4 q 0,21 -9.75,31.95 -9.75,10.95 -27.15,10.95 -17.4,0 -27.15,-10.95 -9.75,-10.95 -9.75,-31.95 z m 36.9,54.6 q 12.15,0 18.15,-8.25 6.15,-8.4 6.15,-23.85 v -21.6 q 0,-14.4 -6.15,-23.25 -6,-8.85 -18.15,-8.85 -12.15,0 -18.3,8.85 -6,8.85 -6,23.25 v 21.6 q 0,15.45 6,23.85 6.15,8.25 18.3,8.25 z"
         id="text20"
         style="font-size:150px;line-height:0.9;font-family:'SpaceMono Nerd Font';-inkscape-font-specification:'SpaceMono Nerd Font';text-align:center;white-space:pre;fill:#fff19f;stroke-width:5;stroke-linecap:square;stroke-linejoin:bevel"
         inkscape:label="text"
         transform="matrix(0.26458333,0,0,0.26458333,-147.18723,16.553163)"
         aria-label="ORO" /><path
         style="fill:#e9b755;fill-opacity:1;stroke:none;stroke-width:0.877122;stroke-linecap:square;stroke-linejoin:bevel"
         d="m 215.8851,112.64185 38.08707,-89.817028 h 2.95219 l -38.08707,89.817028 z"
         id="path20"
         inkscape:label="left-sl"
         sodipodi:nodetypes="ccccc" /><path
         style="fill:#e9b755;fill-opacity:1;stroke:none;stroke-width:0.877122;stroke-linecap:square;stroke-linejoin:bevel"
         d="m 227.52724,112.64184 38.08707,-89.817018 h 2.95219 l -38.08707,89.817018 z"
         id="path20-4"
         inkscape:label="left-sl"
         sodipodi:nodetypes="ccccc" /></g><g
       id="layer2"
       inkscape:label="subtitle"
       transform="translate(16.020688,0.00424062)"><path
         d="m 809.84405,370.37016 h -2.808 v -17.856 h 2.808 v 3.024 h 0.432 q 1.656,-3.528 5.76,-3.528 3.096,0 4.932,1.944 1.836,1.908 1.836,5.76 v 10.656 h -2.808 v -10.08 q 0,-2.808 -1.26,-4.212 -1.26,-1.404 -3.42,-1.404 -2.556,0 -4.032,1.764 -1.44,1.728 -1.44,4.644 z m 21.27599,-8.064 q 0.108,2.664 1.656,4.284 1.548,1.62 4.32,1.62 1.26,0 2.196,-0.288 0.936,-0.288 1.584,-0.792 0.684,-0.504 1.08,-1.152 0.432,-0.684 0.684,-1.44 l 2.664,0.72 q -0.756,2.484 -2.808,4.068 -2.016,1.548 -5.472,1.548 -1.908,0 -3.528,-0.648 -1.584,-0.684 -2.736,-1.908 -1.152,-1.224 -1.8,-2.916 -0.648,-1.692 -0.648,-3.744 v -0.864 q 0,-1.872 0.648,-3.492 0.684,-1.62 1.872,-2.772 1.188,-1.188 2.772,-1.836 1.62,-0.684 3.492,-0.684 2.196,0 3.78,0.828 1.62,0.792 2.628,1.98 1.044,1.188 1.512,2.592 0.504,1.404 0.504,2.592 v 2.304 z m 5.976,-7.632 q -1.188,0 -2.232,0.396 -1.008,0.36 -1.8,1.044 -0.756,0.684 -1.26,1.62 -0.468,0.9 -0.612,1.98 h 11.52 q -0.072,-1.152 -0.576,-2.088 -0.468,-0.936 -1.26,-1.584 -0.756,-0.648 -1.764,-1.008 -0.972,-0.36 -2.016,-0.36 z m 27.57598,12.96 h -0.432 q -0.864,1.62 -2.376,2.448 -1.476,0.792 -3.24,0.792 -1.8,0 -3.384,-0.612 -1.584,-0.612 -2.808,-1.764 -1.188,-1.152 -1.908,-2.844 -0.684,-1.728 -0.684,-3.924 v -0.576 q 0,-2.16 0.72,-3.852 0.72,-1.728 1.908,-2.88 1.188,-1.188 2.772,-1.8 1.584,-0.612 3.312,-0.612 1.944,0 3.384,0.864 1.476,0.828 2.304,2.448 h 0.432 v -2.808 h 2.808 v 22.248 q 0,1.224 -0.792,2.016 -0.756,0.792 -1.98,0.792 h -11.628 v -2.592 h 10.62 q 0.972,0 0.972,-1.08 z m -5.976,0.576 q 1.26,0 2.34,-0.468 1.08,-0.468 1.872,-1.332 0.828,-0.864 1.296,-2.052 0.468,-1.224 0.468,-2.7 v -0.432 q 0,-1.44 -0.468,-2.628 -0.468,-1.224 -1.296,-2.088 -0.792,-0.864 -1.908,-1.332 -1.08,-0.504 -2.304,-0.504 -1.26,0 -2.376,0.468 -1.08,0.468 -1.908,1.332 -0.792,0.864 -1.26,2.052 -0.432,1.188 -0.432,2.628 v 0.576 q 0,1.512 0.432,2.7 0.468,1.188 1.26,2.052 0.828,0.828 1.908,1.296 1.08,0.432 2.376,0.432 z m 16.48798,-5.904 q 0.108,2.664 1.656,4.284 1.548,1.62 4.32,1.62 1.26,0 2.196,-0.288 0.936,-0.288 1.584,-0.792 0.684,-0.504 1.08,-1.152 0.432,-0.684 0.684,-1.44 l 2.664,0.72 q -0.756,2.484 -2.808,4.068 -2.016,1.548 -5.472,1.548 -1.908,0 -3.528,-0.648 -1.584,-0.684 -2.736,-1.908 -1.152,-1.224 -1.8,-2.916 -0.648,-1.692 -0.648,-3.744 v -0.864 q 0,-1.872 0.648,-3.492 0.684,-1.62 1.872,-2.772 1.188,-1.188 2.772,-1.836 1.62,-0.684 3.492,-0.684 2.196,0 3.78,0.828 1.62,0.792 2.628,1.98 1.044,1.188 1.512,2.592 0.504,1.404 0.504,2.592 v 2.304 z m 5.976,-7.632 q -1.188,0 -2.232,0.396 -1.008,0.36 -1.8,1.044 -0.756,0.684 -1.26,1.62 -0.468,0.9 -0.612,1.98 h 11.52 q -0.072,-1.152 -0.576,-2.088 -0.468,-0.936 -1.26,-1.584 -0.756,-0.648 -1.764,-1.008 -0.972,-0.36 -2.016,-0.36 z m 16.81198,15.696 h -2.808 v -17.856 h 2.808 v 3.024 h 0.432 q 1.656,-3.528 5.76,-3.528 3.096,0 4.932,1.944 1.836,1.908 1.836,5.76 v 10.656 h -2.808 v -10.08 q 0,-2.808 -1.26,-4.212 -1.26,-1.404 -3.42,-1.404 -2.556,0 -4.032,1.764 -1.44,1.728 -1.44,4.644 z m 26.67598,-25.2 h 5.868 v 17.64 h 3.888 v 2.808 h -3.888 v 4.752 h -3.024 v -4.752 h -11.664 v -4.176 z m -6.228,17.208 v 0.432 h 9.072 v -16.344 h -0.432 z"
         id="text21"
         style="font-size:36px;line-height:0.9;font-family:'SpaceMono Nerd Font';-inkscape-font-specification:'SpaceMono Nerd Font';text-align:center;white-space:pre;fill:#e9b755;stroke-width:5;stroke-linecap:square;stroke-linejoin:bevel"
         inkscape:label="negen4"
         transform="matrix(0.26458333,0,0,0.26458333,-31.342613,-2.9104167)"
         aria-label="negen4" /><path
         d="m 607.952,352.51416 h 5.508 v -4.536 q 0,-1.224 0.756,-2.016 0.792,-0.792 2.016,-0.792 h 7.056 v 2.592 h -6.048 q -0.972,0 -0.972,1.08 v 3.672 h 7.452 v 2.592 h -7.452 v 15.264 h -2.808 v -15.264 h -5.508 z m 27.75598,-5.328 q 0,-1.044 0.72,-1.764 0.756,-0.756 1.8,-0.756 1.044,0 1.764,0.756 0.756,0.72 0.756,1.764 0,1.044 -0.756,1.8 -0.72,0.72 -1.764,0.72 -1.044,0 -1.8,-0.72 -0.72,-0.756 -0.72,-1.8 z m -5.112,20.592 h 6.264 v -12.672 h -5.616 v -2.592 h 8.424 v 15.264 h 5.832 v 2.592 h -14.904 z m 21.59998,0 h 6.48 v -20.016 h -6.264 v -2.592 h 9.072 v 22.608 h 6.48 v 2.592 h -15.768 z m 24.08399,-5.472 q 0.108,2.664 1.656,4.284 1.548,1.62 4.32,1.62 1.26,0 2.196,-0.288 0.936,-0.288 1.584,-0.792 0.684,-0.504 1.08,-1.152 0.432,-0.684 0.684,-1.44 l 2.664,0.72 q -0.756,2.484 -2.808,4.068 -2.016,1.548 -5.472,1.548 -1.908,0 -3.528,-0.648 -1.584,-0.684 -2.736,-1.908 -1.152,-1.224 -1.8,-2.916 -0.648,-1.692 -0.648,-3.744 v -0.864 q 0,-1.872 0.648,-3.492 0.684,-1.62 1.872,-2.772 1.188,-1.188 2.772,-1.836 1.62,-0.684 3.492,-0.684 2.196,0 3.78,0.828 1.62,0.792 2.628,1.98 1.044,1.188 1.512,2.592 0.504,1.404 0.504,2.592 v 2.304 z m 5.976,-7.632 q -1.188,0 -2.232,0.396 -1.008,0.36 -1.8,1.044 -0.756,0.684 -1.26,1.62 -0.468,0.9 -0.612,1.98 h 11.52 q -0.072,-1.152 -0.576,-2.088 -0.468,-0.936 -1.26,-1.584 -0.756,-0.648 -1.764,-1.008 -0.972,-0.36 -2.016,-0.36 z m 17.71198,2.448 q 0,1.296 1.08,1.98 1.116,0.684 4.032,0.9 3.132,0.252 4.752,1.512 1.656,1.224 1.656,3.6 v 0.216 q 0,1.296 -0.54,2.34 -0.504,1.008 -1.44,1.728 -0.9,0.72 -2.232,1.08 -1.296,0.396 -2.844,0.396 -2.088,0 -3.6,-0.54 -1.476,-0.576 -2.484,-1.476 -0.972,-0.936 -1.476,-2.088 -0.504,-1.188 -0.576,-2.376 l 2.664,-0.648 q 0.18,2.052 1.584,3.312 1.404,1.224 3.744,1.224 1.98,0 3.168,-0.756 1.224,-0.792 1.224,-2.196 0,-1.512 -1.188,-2.16 -1.188,-0.648 -3.852,-0.828 -3.096,-0.216 -4.752,-1.44 -1.656,-1.224 -1.656,-3.564 v -0.216 q 0,-1.26 0.54,-2.196 0.54,-0.972 1.44,-1.62 0.936,-0.648 2.088,-0.972 1.152,-0.324 2.412,-0.324 1.764,0 3.096,0.504 1.332,0.468 2.232,1.26 0.9,0.756 1.368,1.764 0.504,1.008 0.648,2.016 l -2.664,0.648 q -0.18,-1.728 -1.404,-2.7 -1.188,-0.972 -3.132,-0.972 -0.756,0 -1.476,0.18 -0.684,0.144 -1.224,0.468 -0.54,0.324 -0.864,0.828 -0.324,0.468 -0.324,1.116 z m 31.28398,10.008 h -0.432 q -0.864,1.728 -2.268,2.736 -1.404,1.008 -3.564,1.008 -1.476,0 -2.736,-0.504 -1.224,-0.468 -2.124,-1.44 -0.864,-0.972 -1.368,-2.412 -0.468,-1.44 -0.468,-3.348 v -10.656 h 2.808 v 10.296 q 0,2.808 1.152,4.104 1.152,1.296 3.528,1.296 2.556,0 3.996,-1.728 1.476,-1.764 1.476,-4.68 v -9.288 h 2.808 v 22.248 q 0,1.224 -0.792,2.016 -0.756,0.792 -1.98,0.792 h -10.188 v -2.592 h 9.18 q 0.972,0 0.972,-1.08 z m 12.77998,-10.008 q 0,1.296 1.08,1.98 1.116,0.684 4.032,0.9 3.132,0.252 4.752,1.512 1.656,1.224 1.656,3.6 v 0.216 q 0,1.296 -0.54,2.34 -0.504,1.008 -1.44,1.728 -0.9,0.72 -2.232,1.08 -1.296,0.396 -2.844,0.396 -2.088,0 -3.6,-0.54 -1.476,-0.576 -2.484,-1.476 -0.972,-0.936 -1.476,-2.088 -0.504,-1.188 -0.576,-2.376 l 2.664,-0.648 q 0.18,2.052 1.584,3.312 1.404,1.224 3.744,1.224 1.98,0 3.168,-0.756 1.224,-0.792 1.224,-2.196 0,-1.512 -1.188,-2.16 -1.188,-0.648 -3.852,-0.828 -3.096,-0.216 -4.752,-1.44 -1.656,-1.224 -1.656,-3.564 v -0.216 q 0,-1.26 0.54,-2.196 0.54,-0.972 1.44,-1.62 0.936,-0.648 2.088,-0.972 1.152,-0.324 2.412,-0.324 1.764,0 3.096,0.504 1.332,0.468 2.232,1.26 0.9,0.756 1.368,1.764 0.504,1.008 0.648,2.016 l -2.664,0.648 q -0.18,-1.728 -1.404,-2.7 -1.188,-0.972 -3.132,-0.972 -0.756,0 -1.476,0.18 -0.684,0.144 -1.224,0.468 -0.54,0.324 -0.864,0.828 -0.324,0.468 -0.324,1.116 z m 17.71199,-4.608 h 5.616 v -7.344 h 2.808 v 7.344 h 6.912 v 2.592 h -6.912 v 11.592 q 0,1.08 0.972,1.08 h 5.076 v 2.592 h -6.084 q -1.224,0 -2.016,-0.792 -0.756,-0.792 -0.756,-2.016 v -12.456 h -5.616 z m 24.69598,9.792 q 0.108,2.664 1.656,4.284 1.548,1.62 4.32,1.62 1.26,0 2.196,-0.288 0.936,-0.288 1.584,-0.792 0.684,-0.504 1.08,-1.152 0.432,-0.684 0.684,-1.44 l 2.664,0.72 q -0.756,2.484 -2.808,4.068 -2.016,1.548 -5.472,1.548 -1.908,0 -3.528,-0.648 -1.584,-0.684 -2.736,-1.908 -1.152,-1.224 -1.8,-2.916 -0.648,-1.692 -0.648,-3.744 v -0.864 q 0,-1.872 0.648,-3.492 0.684,-1.62 1.872,-2.772 1.188,-1.188 2.772,-1.836 1.62,-0.684 3.492,-0.684 2.196,0 3.78,0.828 1.62,0.792 2.628,1.98 1.044,1.188 1.512,2.592 0.504,1.404 0.504,2.592 v 2.304 z m 5.976,-7.632 q -1.188,0 -2.232,0.396 -1.008,0.36 -1.8,1.044 -0.756,0.684 -1.26,1.62 -0.468,0.9 -0.612,1.98 h 11.52 q -0.072,-1.152 -0.576,-2.088 -0.468,-0.936 -1.26,-1.584 -0.756,-0.648 -1.764,-1.008 -0.972,-0.36 -2.016,-0.36 z m 31.17598,15.696 h -2.808 v -12.816 q 0,-1.26 -0.576,-2.052 -0.576,-0.828 -1.836,-0.828 -1.188,0 -1.944,0.9 -0.72,0.864 -0.72,2.7 v 12.096 h -2.808 v -12.96 q 0,-1.188 -0.648,-1.944 -0.648,-0.792 -1.728,-0.792 -1.296,0 -2.016,0.936 -0.684,0.936 -0.684,2.448 v 12.312 h -2.808 v -17.856 h 2.808 v 1.944 h 0.432 q 0.468,-1.26 1.368,-1.836 0.9,-0.612 2.124,-0.612 1.296,0 2.124,0.684 0.864,0.684 1.188,1.764 h 0.432 q 1.224,-2.448 3.888,-2.448 2.016,0 3.096,1.296 1.116,1.26 1.116,3.312 z m 43.59597,-6.336 q -0.288,1.476 -1.008,2.736 -0.684,1.26 -1.764,2.196 -1.08,0.9 -2.52,1.404 -1.44,0.504 -3.204,0.504 -1.872,0 -3.564,-0.612 -1.656,-0.612 -2.916,-1.764 -1.26,-1.188 -2.016,-2.88 -0.72,-1.692 -0.72,-3.888 v -0.432 q 0,-2.16 0.72,-3.888 0.756,-1.728 2.016,-2.916 1.26,-1.188 2.916,-1.836 1.692,-0.648 3.564,-0.648 1.692,0 3.132,0.504 1.44,0.504 2.52,1.44 1.116,0.9 1.8,2.16 0.72,1.26 0.972,2.736 l -2.808,0.648 q -0.108,-0.936 -0.54,-1.8 -0.396,-0.9 -1.116,-1.548 -0.684,-0.684 -1.692,-1.08 -1.008,-0.396 -2.34,-0.396 -1.296,0 -2.448,0.504 -1.116,0.468 -1.98,1.368 -0.864,0.864 -1.368,2.088 -0.468,1.224 -0.468,2.664 v 0.432 q 0,1.512 0.468,2.736 0.504,1.188 1.368,2.016 0.864,0.828 2.016,1.296 1.152,0.432 2.484,0.432 1.332,0 2.304,-0.396 1.008,-0.432 1.692,-1.08 0.72,-0.684 1.116,-1.548 0.432,-0.864 0.576,-1.8 z m 22.17598,-2.376 q 0,2.232 -0.756,3.96 -0.72,1.692 -1.944,2.88 -1.224,1.152 -2.88,1.764 -1.62,0.612 -3.384,0.612 -1.8,0 -3.42,-0.612 -1.62,-0.612 -2.844,-1.764 -1.224,-1.188 -1.98,-2.88 -0.72,-1.728 -0.72,-3.96 v -0.432 q 0,-2.196 0.72,-3.888 0.756,-1.728 1.98,-2.916 1.26,-1.188 2.88,-1.8 1.62,-0.612 3.384,-0.612 1.764,0 3.384,0.612 1.62,0.612 2.844,1.8 1.26,1.188 1.98,2.916 0.756,1.692 0.756,3.888 z m -8.964,6.552 q 1.296,0 2.376,-0.432 1.116,-0.468 1.944,-1.332 0.828,-0.864 1.296,-2.052 0.468,-1.224 0.468,-2.736 v -0.432 q 0,-1.44 -0.468,-2.628 -0.468,-1.224 -1.296,-2.088 -0.828,-0.864 -1.944,-1.332 -1.116,-0.504 -2.376,-0.504 -1.26,0 -2.376,0.504 -1.116,0.468 -1.944,1.332 -0.828,0.864 -1.296,2.088 -0.468,1.188 -0.468,2.628 v 0.432 q 0,1.512 0.468,2.736 0.468,1.188 1.296,2.052 0.828,0.864 1.908,1.332 1.116,0.432 2.412,0.432 z m 31.31998,2.16 h -2.808 v -12.816 q 0,-1.26 -0.576,-2.052 -0.576,-0.828 -1.836,-0.828 -1.188,0 -1.944,0.9 -0.72,0.864 -0.72,2.7 v 12.096 h -2.808 v -12.96 q 0,-1.188 -0.648,-1.944 -0.648,-0.792 -1.728,-0.792 -1.296,0 -2.016,0.936 -0.684,0.936 -0.684,2.448 v 12.312 h -2.808 v -17.856 h 2.808 v 1.944 h 0.432 q 0.468,-1.26 1.368,-1.836 0.9,-0.612 2.124,-0.612 1.296,0 2.124,0.684 0.864,0.684 1.188,1.764 h 0.432 q 1.224,-2.448 3.888,-2.448 2.016,0 3.096,1.296 1.116,1.26 1.116,3.312 z m 7.01998,7.2 h -2.808 v -25.056 h 2.808 v 2.808 h 0.432 q 0.936,-1.62 2.592,-2.448 1.656,-0.864 3.6,-0.864 1.656,0 3.132,0.612 1.476,0.612 2.592,1.764 1.152,1.152 1.8,2.844 0.684,1.692 0.684,3.852 v 0.72 q 0,2.196 -0.648,3.888 -0.648,1.692 -1.8,2.844 -1.116,1.152 -2.628,1.764 -1.512,0.576 -3.204,0.576 -0.864,0 -1.764,-0.216 -0.9,-0.18 -1.728,-0.576 -0.792,-0.432 -1.476,-1.008 -0.684,-0.612 -1.152,-1.44 h -0.432 z m 5.976,-9.36 q 1.296,0 2.376,-0.432 1.08,-0.468 1.872,-1.296 0.828,-0.828 1.26,-2.016 0.468,-1.188 0.468,-2.664 v -0.72 q 0,-1.44 -0.468,-2.592 -0.432,-1.188 -1.26,-2.016 -0.792,-0.864 -1.908,-1.332 -1.08,-0.468 -2.34,-0.468 -1.26,0 -2.34,0.504 -1.08,0.468 -1.908,1.332 -0.792,0.864 -1.26,2.088 -0.468,1.188 -0.468,2.628 v 0.432 q 0,1.476 0.468,2.7 0.468,1.188 1.26,2.052 0.828,0.864 1.908,1.332 1.08,0.468 2.34,0.468 z m 30.74399,-6.552 q 0,2.232 -0.756,3.96 -0.72,1.692 -1.944,2.88 -1.224,1.152 -2.88,1.764 -1.62,0.612 -3.384,0.612 -1.8,0 -3.42,-0.612 -1.62,-0.612 -2.844,-1.764 -1.224,-1.188 -1.98,-2.88 -0.72,-1.728 -0.72,-3.96 v -0.432 q 0,-2.196 0.72,-3.888 0.756,-1.728 1.98,-2.916 1.26,-1.188 2.88,-1.8 1.62,-0.612 3.384,-0.612 1.764,0 3.384,0.612 1.62,0.612 2.844,1.8 1.26,1.188 1.98,2.916 0.756,1.692 0.756,3.888 z m -8.964,6.552 q 1.296,0 2.376,-0.432 1.116,-0.468 1.944,-1.332 0.828,-0.864 1.296,-2.052 0.468,-1.224 0.468,-2.736 v -0.432 q 0,-1.44 -0.468,-2.628 -0.468,-1.224 -1.296,-2.088 -0.828,-0.864 -1.944,-1.332 -1.116,-0.504 -2.376,-0.504 -1.26,0 -2.376,0.504 -1.116,0.468 -1.944,1.332 -0.828,0.864 -1.296,2.088 -0.468,1.188 -0.468,2.628 v 0.432 q 0,1.512 0.468,2.736 0.468,1.188 1.296,2.052 0.828,0.864 1.908,1.332 1.116,0.432 2.412,0.432 z m 16.95598,2.16 h -2.808 v -17.856 h 2.808 v 3.024 h 0.432 q 1.656,-3.528 5.76,-3.528 3.096,0 4.932,1.944 1.836,1.908 1.836,5.76 v 10.656 h -2.808 v -10.08 q 0,-2.808 -1.26,-4.212 -1.26,-1.404 -3.42,-1.404 -2.556,0 -4.032,1.764 -1.44,1.728 -1.44,4.644 z m 21.27598,-8.064 q 0.108,2.664 1.656,4.284 1.548,1.62 4.32,1.62 1.26,0 2.196,-0.288 0.936,-0.288 1.584,-0.792 0.684,-0.504 1.08,-1.152 0.432,-0.684 0.684,-1.44 l 2.664,0.72 q -0.756,2.484 -2.808,4.068 -2.016,1.548 -5.472,1.548 -1.908,0 -3.528,-0.648 -1.584,-0.684 -2.736,-1.908 -1.152,-1.224 -1.8,-2.916 -0.648,-1.692 -0.648,-3.744 v -0.864 q 0,-1.872 0.648,-3.492 0.684,-1.62 1.872,-2.772 1.188,-1.188 2.772,-1.836 1.62,-0.684 3.492,-0.684 2.196,0 3.78,0.828 1.62,0.792 2.628,1.98 1.044,1.188 1.512,2.592 0.504,1.404 0.504,2.592 v 2.304 z m 5.976,-7.632 q -1.188,0 -2.232,0.396 -1.008,0.36 -1.8,1.044 -0.756,0.684 -1.26,1.62 -0.468,0.9 -0.612,1.98 h 11.52 q -0.072,-1.152 -0.576,-2.088 -0.468,-0.936 -1.26,-1.584 -0.756,-0.648 -1.764,-1.008 -0.972,-0.36 -2.016,-0.36 z m 16.812,15.696 h -2.808 v -17.856 h 2.808 v 3.024 h 0.432 q 1.656,-3.528 5.76,-3.528 3.096,0 4.932,1.944 1.836,1.908 1.836,5.76 v 10.656 h -2.808 v -10.08 q 0,-2.808 -1.26,-4.212 -1.26,-1.404 -3.42,-1.404 -2.556,0 -4.032,1.764 -1.44,1.728 -1.44,4.644 z m 18.612,-17.856 h 5.616 v -7.344 h 2.808 v 7.344 h 6.912 v 2.592 h -6.912 v 11.592 q 0,1.08 0.972,1.08 h 5.076 v 2.592 h -6.084 q -1.224,0 -2.016,-0.792 -0.756,-0.792 -0.756,-2.016 v -12.456 h -5.616 z"
         id="text2"
         style="font-size:36px;line-height:0.9;font-family:'SpaceMono Nerd Font';-inkscape-font-specification:'SpaceMono Nerd Font';white-space:pre;fill:#e9b755;stroke-width:5;stroke-linecap:square;stroke-linejoin:bevel"
         inkscape:label="fs-component"
         transform="matrix(0.26458333,0,0,0.26458333,87.798089,-2.9104167)"
         aria-label="filesystem component" /></g></g></svg>
